#!OML:ASF E:/inclinewalkrobotboard/Project1/Captureday1/Session1/subject1.ASF
:FULLY-SPECIFIED
:DEGREES
313
root 0 0 0 1.8274719014489085 -10.590237094275208 0.911522344476101
lowerback -0.27097634648703073 -1.6609744375472295 -2.7053267314418896
upperback -0.5240346308889291 -2.168821461558209 1.6904641306013362
thorax -0.28776768024286137 -1.0796133463174045 3.1879047676161325
lowerneck -25.251754823529964 -1.8460841526255765 -7.778781430217072
upperneck 26.48493552567549 -0.08695088049033783 2.307359310628775
head 13.11661475996196 -0.6400179151289591 2.2915074533840825
rclavicle -7.732652968022264E-15 9.635159788381998E-16
rhumerus -31.289760548222997 -1.9168768648863903 -81.54116319175057
rradius 31.215988469504566
rwrist 18.522603210999023
rhand -18.231432805722672 9.392745915800305
rfingers 7.125019999999931
rthumb 8.042211841505736 -20.38532367015035
lclavicle -8.819910833489844E-15 3.73909371410022E-15
lhumerus -20.730880587984903 -0.5341429588691371 91.59929160577717
lradius 61.21138165775872
lwrist 2.0149244751386206
lhand -28.44529606831131 20.83364174549158
lfingers 7.125020000000007
lthumb -1.8409181908888517 50.813068243625054
rfemur -7.47811225213694 1.8235580284510418 23.923307568203754
rtibia 66.57801418690309
rfoot 8.828807209554247 -2.0402329537866306
rtoes 11.057494610833462
lfemur -18.858824393325133 -3.0083786985259473 -19.44155159487596
ltibia 34.769880160614804
lfoot -2.926040643188906 -4.477804548633433
ltoes 7.382570734890443
314
root 0 0 0 1.8481466340743502 -10.620532215750659 0.8960602121749527
lowerback -0.2493424346836488 -1.6854260315138307 -2.6837597866742025
upperback -0.4602332711409133 -2.2017623238554958 1.681028008680768
thorax -0.2263160414648957 -1.0991823383970543 3.166119234154622
lowerneck -25.177597798658425 -1.819710451651725 -7.794286686445492
upperneck 26.84665318971684 -0.04432003595466816 2.235927310106598
head 13.223121318694016 -0.6336247947104134 2.2785858655300606
rclavicle -6.218874610817037E-15 2.0182236316977604E-15
rhumerus -31.708098009416545 -3.206875857125225 -81.29263406292804
rradius 30.91253472420355
rwrist 18.854200442079783
rhand -17.942187400320528 9.339278485290546
rfingers 7.125019999999926
rthumb 8.320963942339857 -20.431459008799
lclavicle -7.64869579428303E-15 4.2713866352942285E-15
lhumerus -21.510630139169024 -1.6358417375925711 91.74834565726444
lradius 61.598472024303575
lwrist 2.5138525209415032
lhand -28.092354069684138 21.147663433424857
lfingers 7.125020000000007
lthumb -1.500789113726971 51.15583147638126
rfemur -13.0580189219237 0.5012009387936462 23.11060783719199
rtibia 70.69314434116086
rfoot 3.818736462446749 -4.573933893327868
rtoes 9.989991124852917
lfemur -14.707900767687581 -2.8465794267297047 -22.937035235356543
ltibia 30.483165391933476
lfoot -7.878519105674231 -1.5922845944700175
ltoes 9.647206846694115
315
root 0 0 0 1.877705800011 -10.633194422962047 0.8801637042971803
lowerback -0.2307920166332338 -1.7035375532306314 -2.6735755439507436
upperback -0.4008671018931192 -2.2271234930134276 1.6757312161834017
thorax -0.1676145443273791 -1.114587558044405 3.1543633435954037
lowerneck -25.046515203613676 -1.7872403528825702 -7.823803026943466
upperneck 27.204771740165107 -0.0010397070112021511 2.195141244832599
head 13.321016461524767 -0.6246262165169784 2.2794027418423086
rclavicle -4.043193177196866E-15 1.922199473882635E-15
rhumerus -31.95195660774227 -3.9074462400146803 -81.13961529060985
rradius 30.739538573338052
rwrist 19.05373430737787
rhand -17.7814238116861 9.300004700170142
rfingers 7.125019999999925
rthumb 8.475507961822359 -20.46526962915403
lclavicle -6.647480606025141E-15 4.082124692832363E-15
lhumerus -21.872433714736353 -2.624595627783837 91.78027275137286
lradius 62.04051350768597
lwrist 2.844665314756858
lhand -27.92953472546496 21.445649276534603
lfingers 7.125020000000006
lthumb -1.3441686588082042 51.4703780522341
rfemur -22.398759032194995 -1.0323410067936898 20.15032775350422
rtibia 72.80868510608703
rfoot -2.3404820485579183 -6.5221917465776755
rtoes 6.2058542322078365
lfemur -9.621096299989793 -3.1816121131354804 -25.964026543420978
ltibia 25.294443046073976
lfoot -14.158344723075498 1.472876324759386
ltoes 10.002031461858675
316
root 0 0 0 1.9073351334202364 -10.656371071483902 0.8786522739976101
lowerback -0.2337719852748008 -1.7233259252841275 -2.6726902225202394
upperback -0.3560542809414017 -2.2537016697042986 1.6733391948525873
thorax -0.11211350667266795 -1.130232758201366 3.15114219838304
lowerneck -25.02909754236046 -1.7779100414289797 -7.856063330888309
upperneck 27.38502588837667 0.01592932993701579 2.190125426888894
head 13.374474028504768 -0.6202378037106164 2.2869679701025585
rclavicle -3.3096498351137996E-15 1.6280769474132119E-15
rhumerus -32.07429481166243 -3.819452941993122 -80.93332026152596
rradius 30.607587078983265
rwrist 19.08986189502917
rhand -17.79795258709104 9.31395930608854
rfingers 7.125019999999925
rthumb 8.459658993546626 -20.45422998178465
lclavicle -6.593617789199009E-15 3.783205442023757E-15
lhumerus -22.323963284386927 -3.8882066156994144 91.8591737960117
lradius 62.51848294887444
lwrist 3.2197834591588306
lhand -27.769575519262673 21.696828373216356
lfingers 7.125020000000004
lthumb -1.1916096502226479 51.73782714280305
rfemur -27.24779464693077 -1.2774597497017677 19.9651869179537
rtibia 68.38236488323214
rfoot -4.415669615250112 -7.322582411429976
rtoes 3.7740641340206045
lfemur -3.5959373991815626 -3.5540654540061114 -28.08150342493747
ltibia 21.573812292727325
lfoot -19.348853076384607 2.485568885410491
ltoes 7.320099867116262
317
root 0 0 0 1.9379001789038537 -10.696923405913667 0.8824252170077014
lowerback -0.25342632630470474 -1.7485341589180496 -2.674450306231838
upperback -0.3119940215778765 -2.287356959278303 1.6708183567626307
thorax -0.048770755505888275 -1.1493899957435565 3.1500151250212216
lowerneck -25.058143385298028 -1.7764233351663128 -7.895957479897441
upperneck 27.542691689273298 0.026950730772783316 2.185363391259969
head 13.427602335382081 -0.6175681562427255 2.2937752953555615
rclavicle -3.0247962541220716E-15 1.3684526912483214E-15
rhumerus -32.23624040483422 -3.3746415215606627 -80.58128553008233
rradius 30.40724474017296
rwrist 19.1282871158385
rhand -17.881286596252465 9.322808139007329
rfingers 7.125019999999927
rthumb 8.380059078763951 -20.455356463780646
lclavicle -5.9504277651135916E-15 3.549239518738035E-15
lhumerus -22.831463867059234 -5.191779427164481 91.9392243869965
lradius 62.98916833279435
lwrist 3.5984551394704125
lhand -27.585421057189663 21.918872470325773
lfingers 7.125020000000001
lthumb -1.0164722143473623 51.97756358033921
rfemur -29.28162531450483 -0.5439095309691151 19.61753989064588
rtibia 60.443266207612865
rfoot -4.787792227089877 -8.513026512413962
rtoes 1.3026309888156957
lfemur 0.4203543846241604 -3.7511071495989183 -29.099227406183466
ltibia 19.100761794890712
lfoot -21.50674539659994 2.1205315369117645
ltoes 4.294455035594249
318
root 0 0 0 1.9614838211091452 -10.728815761779705 0.891181523093966
lowerback -0.268014033492896 -1.7686992751117416 -2.678248054996289
upperback -0.28038765673937005 -2.314547081305595 1.6736459824210903
thorax -0.0035537969526362456 -1.1646361478809109 3.155686189715512
lowerneck -25.12440928893901 -1.7783857245153083 -7.922414557890814
upperneck 27.57305560212859 0.03305220107874929 2.1887360646641363
head 13.444696512980972 -0.6130612720520933 2.299489251665124
rclavicle -2.4214418972772322E-15 8.678952745241983E-16
rhumerus -32.526373775314184 -2.931929400720028 -80.03741037642003
rradius 30.069829643470115
rwrist 19.252607453214317
rhand -17.949424655317294 9.320783771904875
rfingers 7.12501999999993
rthumb 8.314849721150207 -20.472862990194535
lclavicle -4.610063530604207E-15 3.113288220446212E-15
lhumerus -23.043703846997133 -6.254831633883777 91.83574376861131
lradius 63.474661892043656
lwrist 3.9790515530258173
lhand -27.403508729159288 22.28159187872697
lfingers 7.125019999999996
lthumb -0.8414234311467013 52.358345753818895
rfemur -31.4224018900863 0.9921190717745887 18.120083822407956
rtibia 48.547442043842764
rfoot -4.384804352074502 -10.248041301746873
rtoes -1.5441689810218246
lfemur 4.14206985028377 -3.980323254150391 -29.750440877666176
ltibia 16.977793061293895
lfoot -22.122604072341854 1.158153905110313
ltoes 1.1553426569387248
319
root 0 0 0 1.9823928282905288 -10.761202563121767 0.9086603887875564
lowerback -0.27124923025508085 -1.7906393868266444 -2.6816712207203293
upperback -0.2534739931634388 -2.3435491781226196 1.6875206617054461
thorax 0.029746351241781932 -1.1808242488376817 3.1731043550852474
lowerneck -25.287202800400493 -1.7821344577024343 -7.929805162531167
upperneck 27.374874837396046 0.04309805891949681 2.195643451623953
head 13.397983193778504 -0.6002846265553663 2.3006616518551724
rclavicle -9.614165670679129E-16 -6.287650601961908E-17
rhumerus -32.984863174460436 -2.620359291331099 -79.30873379047344
rradius 29.594682620641844
rwrist 19.514433723005077
rhand -17.968697344568263 9.277236023890751
rfingers 7.125019999999935
rthumb 8.296141590577173 -20.540298899768285
lclavicle -2.222091267245335E-15 2.375909439251876E-15
lhumerus -22.962898430107064 -7.195829359315265 91.57222795115732
lradius 64.05186265924979
lwrist 4.351204851774656
lhand -27.256853399094453 22.818437834830785
lfingers 7.12501999999999
lthumb -0.6979848258739567 52.91293099001381
rfemur -32.854659835752464 2.508915018238781 17.08052587685949
rtibia 37.934319019661515
rfoot -4.361730875976432 -11.659825416252744
rtoes -3.626542755501088
lfemur 8.871070818113942 -4.375322379750097 -30.22446663843441
ltibia 14.959587397774337
lfoot -21.284995534306795 -0.48870344866984894
ltoes -2.617082993713465
320
root 0 0 0 2.0010830547262315 -10.787274711919457 0.935509462276485
lowerback -0.24382428222907992 -1.8158739214159312 -2.680699387326507
upperback -0.22432461947251925 -2.376247396352648 1.7228194093027427
thorax 0.04896474082377744 -1.1991054059377575 3.211474238949963
lowerneck -25.586981587524324 -1.7832222201151628 -7.903674202283361
upperneck 26.827405238839283 0.06461265550192186 2.20435777141914
head 13.250640849251115 -0.5716829908921969 2.294037504129957
rclavicle 9.0640186760344E-16 -1.0882730946980158E-15
rhumerus -33.500758247430355 -2.5849649180016177 -78.61458933967398
rradius 29.11795520029797
rwrist 19.871874297103368
rhand -17.92346794259205 9.17828783266784
rfingers 7.125019999999942
rthumb 8.339122614770494 -20.65850560585505
lclavicle 3.7919598089519784E-16 1.6643735711774554E-15
lhumerus -22.744154332170904 -8.020834083801361 91.31087207679019
lradius 64.65022800797784
lwrist 4.614945285809356
lhand -27.205500947109222 23.346522438213835
lfingers 7.125019999999986
lthumb -0.6444131302823966 53.452996256958464
rfemur -33.35068343706821 3.483497698113899 17.085122393957526
rtibia 31.595152593424864
rfoot -4.746698182059786 -12.166877366601115
rtoes -4.336042085004764
lfemur 15.668080151931447 -4.923753792506232 -30.23340185577618
ltibia 14.241446172913376
lfoot -17.20805071180234 -3.426207457187372
ltoes -7.4560702587184915
